<?xml version="1.0" standalone="no"?>
<!DOCTYPE svg PUBLIC "-//W3C//DTD SVG 20010904//EN"
 "http://www.w3.org/TR/2001/REC-SVG-20010904/DTD/svg10.dtd">
<svg version="1.0" xmlns="http://www.w3.org/2000/svg"
 width="700.000000pt" height="700.000000pt" viewBox="0 0 700.000000 700.000000"
 preserveAspectRatio="xMidYMid meet">
<metadata>
Created by potrace 1.14, written by Peter Selinger 2001-2017
</metadata>
<g transform="translate(0.000000,700.000000) scale(0.100000,-0.100000)"
fill="#000000" stroke="none">
<path d="M1109 6348 c-83 -7 -184 -39 -241 -75 -21 -12 -40 -23 -44 -23 -17 0
-147 -119 -187 -172 -15 -20 -43 -43 -62 -52 -80 -38 -188 -139 -251 -234 -48
-72 -79 -142 -106 -242 l-23 -85 0 -1560 c0 -858 4 -1582 9 -1610 26 -157 100
-299 216 -415 97 -97 179 -146 305 -181 l80 -22 1816 -1 1817 -1 78 -49 c44
-27 102 -63 129 -81 28 -18 185 -116 350 -220 165 -103 316 -197 335 -210 19
-13 215 -136 435 -273 220 -138 405 -256 412 -261 7 -6 14 -11 17 -11 3 0 43
-24 88 -53 158 -102 174 -110 197 -95 43 26 36 53 -68 278 -55 118 -98 216
-97 218 4 3 242 -145 351 -218 58 -38 75 -43 101 -25 30 19 31 56 5 111 -25
53 -95 205 -311 679 -101 220 -198 432 -216 472 -19 40 -34 76 -34 80 0 5 14
17 30 27 39 22 144 128 180 181 37 54 84 149 103 210 40 128 40 119 41 1675 1
1510 -1 1613 -34 1716 -90 284 -312 486 -574 521 -60 8 -4757 9 -4847 1z"/>
</g>
</svg>
